<?xml version="1.0" encoding="UTF-8"?> <svg xmlns="http://www.w3.org/2000/svg" viewBox="0 0 68.76 99.22"><defs><style>.cls-1{fill:#eebc4f;}.cls-2{fill:#1d1d1b;}</style></defs><g id="Слой_2" data-name="Слой 2"><g id="Слой_1-2" data-name="Слой 1"><path class="cls-1" d="M56.84,66.65a27,27,0,0,0,1.12-20c-3.05-8.84-9.19-16-13.31-24.32C41.21,15.42,39.26,7.14,42.22,0L16.49,27.07C7.21,36.84-2.64,48.1.64,62.62A26.13,26.13,0,0,0,24.08,83.08C37.91,84.17,50.75,80,56.84,66.65Z"></path><path class="cls-2" d="M68.34,27.36c0-.1,0-.19,0-.28,0-.29-.4-.48-.52-.18-.25.63-.51,1.24-.77,1.83-5.83,6-14.41,6.36-22,9.44a15.05,15.05,0,0,0-7,5.72A54.54,54.54,0,0,0,40.64,29c0-.37-.49-.37-.65-.12a31.88,31.88,0,0,0-5.06,16.39,31.06,31.06,0,0,0-.59,6.07l0,.08a.21.21,0,0,0,0,.22c0,.17,0,.33,0,.5A65.65,65.65,0,0,1,30.68,62a.21.21,0,0,0,0,.08,13.46,13.46,0,0,0-2,2.31.24.24,0,0,0,.06.36c-1,1.4-2,2.85-2.85,4.32,1.05-4.44,2.5-9.19,3.34-13.95,2.22-6.83,3.85-13.38.55-20.42C26.13,26.81,19.1,22.2,14.63,15c-.19-.3-.73,0-.57.29,3.11,6.46,9.23,10,13.07,16,3.15,4.88,4.64,9.91,3.77,15.71a32.16,32.16,0,0,1-1.17,4.79c.51-4.78.19-9.49-2-13.86a26.54,26.54,0,0,0-2.13-3.46,14.82,14.82,0,0,0-3.26-6.86c-.13-.16-.39,0-.27.18a19.16,19.16,0,0,1,2.13,3.8,16.13,16.13,0,0,1,.59,1.78C20.14,27.3,14,22.5,13.86,14.06a.21.21,0,0,0-.27-.2v0c0-.21-.3-.27-.33-.06-1.08,8,1.8,14.94,5.57,21.81,4.55,8.27,8.4,15.44,8.39,24.78-.67,3.29-1.46,6.59-2.07,9.86v0c-.37.63-.73,1.27-1.1,1.91,1-6-1-13.42-4.26-17.49a.3.3,0,0,0-.54.18c0,6.14,2.34,11.92,2.39,18-.11,1-.22,1.91-.33,2.88a.15.15,0,0,0,.14.17c0,.26-.06.52-.11.79a.14.14,0,0,0,.1.17c-.67,1.24-1.32,2.48-2,3.74l-.13.12a.17.17,0,0,0,0,.21A83.72,83.72,0,0,0,12.47,99a.18.18,0,0,0,.34.11c2.73-6.51,5.22-13,8.16-19.27a51.3,51.3,0,0,1,5.79-4,.19.19,0,0,0,.36,0l.09-.27c4.34-2.63,9-5.12,12.92-8.23a13.9,13.9,0,0,0,7-4.93c.15-.22-.16-.49-.32-.27-1.42,2-3.41,3.05-5.45,4.16a20.31,20.31,0,0,0,6.25-9.11,21.42,21.42,0,0,0,4.72-5.06c-.52,2.71-1,5.43-1.64,8.11-1.53,6.07-5.65,10-11.24,12.35-5.76,2.4-12.36,3.11-17,7.71-.21.2.1.55.33.38,6.44-4.87,14.52-5.48,21.29-9.6,7.29-4.44,7.87-13.47,9.32-21h0a14.65,14.65,0,0,0,.58-1.4c.07-.2,0-.5-.26-.52l-.24,0a.36.36,0,0,0-.41.28c-.07.31-.13.62-.2.93-.2,0-.37.27-.52.94a15.53,15.53,0,0,1-1.68,2.49A23.43,23.43,0,0,1,46.24,57c-2.82,2.2-6,4-9,5.92-4.57,3-8.47,6.65-10.21,11.86a59.66,59.66,0,0,0-5.6,4c1.14-2.4,2.35-4.78,3.68-7.13a75.48,75.48,0,0,1,6.08-9c3.66-3.07,7.8-5.24,11.62-8.21S48.25,47.38,51.35,44c1.37-.59,2.72-1.23,4-1.9,5.45-2.81,11-7,12.61-13.08a10.5,10.5,0,0,0,.75-1.36A.28.28,0,0,0,68.34,27.36Zm-54.62-8c1.57,5.22,6.38,9.7,9.66,13.69A23.38,23.38,0,0,1,27,39.24c-1.58-1.61-3.58-2.81-4.84-4.78-.11-.18-.38,0-.27.18a20.11,20.11,0,0,0,5.52,5.74c1.59,4.81,1.46,9.85.7,15C27.05,42.81,15.51,32.13,13.72,19.36Zm33,38.56a39.41,39.41,0,0,1-13,12.74c-2,1.26-4.09,2.48-6.1,3.76C30.89,66.11,39.86,63,46.68,57.92ZM19.84,56.09c0-.54,1.37,2.4,1.68,3.2.16.4.28.81.41,1.22L22,61.9c-.1-.43-.2-.85-.32-1.28-.07-.24-.43-.11-.36.13A26.09,26.09,0,0,1,22,69C21.47,64.7,20.14,60.49,19.84,56.09Zm2,20.08a17.76,17.76,0,0,0,.37-3c0-.24.08-.49.12-.73,0,1-.09,2-.18,3a.11.11,0,0,0,.06.13Zm1-12.07c.1.58.18,1.16.26,1.74a22.44,22.44,0,0,1-.09,6.5A41.29,41.29,0,0,0,22.76,64.1ZM50.45,37.21c3.15-.92,7.22-1.68,10.81-3.14a32.92,32.92,0,0,1-9.51,5.29c-4.45,1.58-9,1.84-12.9,4.39C41.72,40.22,46,38.52,50.45,37.21Zm-15,8.66c.32-2.19.7-4.38,1.11-6.59a.2.2,0,0,0-.15-.23,40.17,40.17,0,0,1,3-8c1.11-2.21.29.33.21,1.15a56.33,56.33,0,0,1-1.17,6.56,44.93,44.93,0,0,1-1.25,4.44c.43-2.46.67-5,1-7.44,0-.26-.37-.34-.41-.08-.63,4.1-1.29,8.14-2.23,12.16a.58.58,0,0,1,0,.14Q35.49,46.94,35.5,45.87Zm-.27,5.41s0,0,0,0C37,48.59,40,47.47,43,46.65c-3.68,4.75-7.63,9.26-11.29,14A59.59,59.59,0,0,0,35.23,51.28Zm13.71-4.76A28.57,28.57,0,0,1,41.25,55c-2.45,1.89-5.27,3.21-7.8,4.88a159.18,159.18,0,0,0,10.2-13.4c1-.25,2-.48,2.86-.73a38.74,38.74,0,0,0,4-1.36A11.11,11.11,0,0,0,48.94,46.52Zm11.28-8.44c-3.3,2.59-7.29,4.23-11.12,5.85C44.9,45.71,38.9,46,35.79,49.66c.08-.22.17-.43.25-.65q.6-1.3,1.14-2.67a13.88,13.88,0,0,1,1-1.69C43.37,41,50,40.87,55.78,38.37a28.4,28.4,0,0,0,8.52-5.83,12.35,12.35,0,0,0,1.44-1A20.67,20.67,0,0,1,60.22,38.08Z"></path><path class="cls-2" d="M27.88,37.31c-.39-2-.9-4.08-1.45-6.06-.07-.21-.39-.09-.34.12.49,1.95.5,4.26,1.5,6A.16.16,0,0,0,27.88,37.31Z"></path><path class="cls-2" d="M44.34,48.1a61.54,61.54,0,0,1-4.69,4.59.13.13,0,0,0,.14.21c2-.92,3.5-2.88,4.78-4.6C44.69,48.14,44.46,47.93,44.34,48.1Z"></path><path class="cls-2" d="M50.48,38c-1.88-.14-3.39,1.89-5.21,2.09a.14.14,0,0,0,0,.28,5.72,5.72,0,0,0,2.33-.76,31,31,0,0,0,2.91-1.36A.14.14,0,0,0,50.48,38Z"></path><path class="cls-2" d="M51.44,39c-.54.17-1,.45-1.58.61-.18.05-.08.33.1.28a3.15,3.15,0,0,0,1.59-.73A.1.1,0,0,0,51.44,39Z"></path><path class="cls-2" d="M36.82,70.7c2.09-.63,4.17-1.52,6.22-2.3.27-.1.12-.53-.15-.43-2,.76-4.37,1.25-6.19,2.48A.14.14,0,0,0,36.82,70.7Z"></path><path class="cls-2" d="M32.67,73.47a17.27,17.27,0,0,0,6.23-2.13c.2-.11,0-.4-.2-.29-1.94,1-4.1,1.29-6.08,2.18A.12.12,0,0,0,32.67,73.47Z"></path></g></g></svg> 